<?xml version="1.0" encoding="utf-8"?>
<!-- Svg Vector Icons : http://www.onlinewebfonts.com/icon -->
<!DOCTYPE svg PUBLIC "-//W3C//DTD SVG 1.1//EN" "http://www.w3.org/Graphics/SVG/1.1/DTD/svg11.dtd">
<svg version="1.1" xmlns="http://www.w3.org/2000/svg" xmlns:xlink="http://www.w3.org/1999/xlink" x="0px" y="0px" viewBox="0 0 1000 1000" enable-background="new 0 0 1000 1000" xml:space="preserve">
<metadata> Svg Vector Icons : http://www.onlinewebfonts.com/icon </metadata>
<g><path d="M962.6,830.9l-331-331l330.9-330.8c36.5-36.5,36.5-95.7,0-132.2c-36.5-36.5-95.7-36.5-132.2,0L499.5,367.8L169.6,37.9c-36.5-36.5-95.7-36.5-132.2,0c-36.5,36.5-36.5,95.7,0,132.2L367.3,500l-330,329.9c-36.5,36.5-36.5,95.6,0,132.1c36.5,36.5,95.7,36.5,132.2,0l329.9-329.9l331,331c36.5,36.5,95.7,36.5,132.2,0C999.1,926.6,999.1,867.4,962.6,830.9z"/></g>
</svg>