<?xml version="1.0" encoding="utf-8"?>
<!-- Svg Vector Icons : http://www.onlinewebfonts.com/icon -->
<!DOCTYPE svg PUBLIC "-//W3C//DTD SVG 1.1//EN" "http://www.w3.org/Graphics/SVG/1.1/DTD/svg11.dtd">
<svg version="1.1" xmlns="http://www.w3.org/2000/svg" xmlns:xlink="http://www.w3.org/1999/xlink" x="0px" y="0px" viewBox="0 0 1000 1000" enable-background="new 0 0 1000 1000" xml:space="preserve">
<metadata> Svg Vector Icons : http://www.onlinewebfonts.com/icon </metadata>
<g><g transform="translate(0.000000,511.000000) scale(0.100000,-0.100000)"><path d="M6143.1,4933.7c-1034.8-118.6-1955-701.4-2503.1-1582.9c-374.2-599.2-544-1298.6-492.8-2034.8c90-1353.8,1006.2-2533.8,2296.6-2963.2c386.5-128.9,566.5-155.4,1073.6-155.4c402.9,0,486.7,6.1,674.9,47c1433.6,312.9,2450,1388.6,2681,2836.5c43,263.8,32.7,795.5-20.4,1079.8c-249.5,1355.9-1247.5,2400.9-2589,2709.7C6918.2,4950.1,6488.7,4974.6,6143.1,4933.7z M7018.4,3976.6C8016.4,3768,8777.1,2970.5,8953,1952c34.8-196.3,28.6-615.6-10.2-820.1C8791.4,326.2,8237.2-371.1,7501-690.2C6548-1101.2,5470.3-884.4,4752.5-138c-433.6,449.9-660.6,977.5-683.1,1589c-18.4,447.9,49.1,787.3,227,1165.7c372.2,785.3,1092,1292.5,1996,1407C6429.4,4040,6836.4,4013.4,7018.4,3976.6z"/><path d="M1770.8-1765.9C349.5-3193.3,241.1-3303.7,190-3424.4c-81.8-188.1-106.3-341.5-79.8-517.4c79.8-507.2,558.3-863,1051.1-779.2c306.8,53.2,227-16.3,1897.8,1650.4l1519.5,1517.4l-180,124.7C4022.4-1168.7,3730-872.2,3480.5-500c-73.6,108.4-139.1,210.6-145.2,229.1c-6.1,18.4-18.4,32.7-26.6,32.7C3302.6-238.2,2609.3-925.3,1770.8-1765.9z"/></g></g>
</svg>