<svg xmlns="http://www.w3.org/2000/svg" viewBox="0 0 1000 1000" xml:space="preserve"><path d="M614.31 17.63C510.83 29.49 418.81 87.77 364 175.92c-37.42 59.92-54.4 129.86-49.28 203.48 9 135.38 100.62 253.38 229.66 296.32 38.65 12.89 56.65 15.54 107.36 15.54 40.29 0 48.67-.61 67.49-4.7 143.36-31.29 245-138.86 268.1-283.65 4.3-26.38 3.27-79.55-2.04-107.98-24.95-135.59-124.75-240.09-258.9-270.97-34.57-7.97-77.52-10.42-112.08-6.33zm87.53 95.71c99.8 20.86 175.87 100.61 193.46 202.46 3.48 19.63 2.86 61.56-1.02 82.01-15.14 80.57-70.56 150.3-144.18 182.21-95.3 41.1-203.07 19.42-274.85-55.22-43.36-44.99-66.06-97.75-68.31-158.9-1.84-44.79 4.91-78.73 22.7-116.57 37.22-78.53 109.2-129.25 199.6-140.7 13.7-1.63 54.4 1.03 72.6 4.71zM177.08 687.59C34.95 830.33 24.11 841.37 19 853.44c-8.18 18.81-10.63 34.15-7.98 51.74 7.98 50.72 55.83 86.3 105.11 77.92 30.68-5.32 22.7 1.63 189.78-165.04l151.95-151.74-18-12.47C402.24 627.87 373 598.22 348.05 561c-7.36-10.84-13.91-21.06-14.52-22.91-.61-1.84-1.84-3.27-2.66-3.27-.61 0-69.94 68.71-153.79 152.77z"/></svg>